<?xml version="1.0" encoding="UTF-8"?>
<svg id="Layer_2" data-name="Layer 2" xmlns="http://www.w3.org/2000/svg" viewBox="0 0 871.86 837.43">
  <defs>
    <style>
      .cls-1 {
        fill: #cfaa37;
        stroke-width: 0px;
      }
    </style>
  </defs>
  <g id="Layer_1-2" data-name="Layer 1">
    <path class="cls-1" d="m752.46,405.29c5.25,1.76,10.33,3.28,15.26,5.16,37.94,14.42,68.77,37.74,87.36,74.37,21.26,41.89,23.46,84.56-.1,126.67-9.69,17.32-23.26,31.24-40.28,41.52-3.8,2.3-3.59,4.28-1.76,7.5,3.28,5.77,8.14,9.53,14.08,12.2,3.18,1.42,6.51,2.76,9.26,4.83,7.99,6,6.66,16.06-2.57,19.82-8.77,3.58-17.77,2.67-26.44-.18-6.28-2.06-12.26-5.13-18.25-8-3.29-1.58-6.37-3.62-9.49-5.54-12.8-7.86-25.62-14.4-41.42-15.68-25.77-2.09-49.8-11.71-73.28-22.13-38.5-17.07-76.82-34.55-115.22-51.85-.86-.39-1.77-.66-3.81-1.4,2.32,4.56,4.67,8,5.87,11.8,2.14,6.74,4.6,13.63,5.08,20.59.62,8.94-2.82,13.04-11.44,17.63,3.12,11.31,6.44,22.62,9.34,34.03,6.92,27.24,10.7,54.88,9.45,83.06-.33,7.3-1.45,14.57-1.95,21.87-.99,14.34,3.71,26.42,14.34,36.28,2.47,2.29,4.95,5.33,5.74,8.45.71,2.79.05,7.11-1.79,9.01-1.83,1.89-5.9,2.1-8.99,2.13-1.95.02-4.01-1.48-5.87-2.56-11.78-6.89-23.51-13.86-35.26-20.8-.71-.42-1.4-1.01-2.18-1.17-12.5-2.53-21.09-10.89-29.42-19.64-28.07-29.5-51.02-62.83-72.04-97.49-10.26-16.92-19.5-34.48-28.57-52.08-5.63-10.92-8.65-22.67-5.23-36.14-2.42.88-4.04,1.47-5.66,2.05-38.03,13.47-77.05,17.58-117.06,12.38-70.51-9.16-129.86-40.91-180.75-89.57-32.93-31.49-59.18-68.04-80.62-108.13-5.96-11.15-10.52-22.69-8.2-35.79,2.59-14.58,12.11-24.43,26.99-24.86,13.71-.4,27.6.63,41.21,2.49,62.82,8.58,122.29,28.88,180.59,52.94,47.7,19.69,95.19,39.88,142.82,59.72,12.42,5.17,25.04,9.85,38.67,15.18-.97-6.01.54-10.96-3.19-16.08-23.88-32.72-48.26-65.02-75.93-94.7-2.39-2.56-4.82-3.4-8.23-3.47-15.62-.32-28.23-6.97-37.9-19.11-1.08-1.36-1.84-3.76-1.39-5.27.31-1.04,2.93-1.75,4.6-1.95,9.73-1.15,18.77,1.41,26.35,7.24,7.75,5.96,15.17,12.53,21.85,19.67,26.48,28.31,49.13,59.63,70.93,91.6,1.4,2.05,2.81,4.08,4.27,6.18,2.06-1.04,3.82-1.93,6.16-3.11-1.94-7.55-3.87-15.23-5.89-22.88-10.51-39.78-18.04-80.14-23.39-120.92-.4-3.06-.19-6.37.55-9.36.93-3.76,3.86-5.83,7.85-5.62,4,.21,5.82,3.17,6.46,6.58.52,2.74.45,5.67.17,8.46-1.16,11.92-3.18,23.81-3.51,35.75-.23,8.19,1.15,16.6,2.97,24.64,6.02,26.6,12.61,53.07,18.88,79.62.71,2.99,2.06,4.79,4.94,6.14,2.6,1.22,4.67,3.57,7.38,5.75,2.01-12.81,4-25.39,5.97-37.98,5.92-37.97,11.41-76.02,17.87-113.9,5.84-34.25,11.61-68.59,19.43-102.42,16.16-69.92,49.16-131.05,100.7-181.37,14.6-14.25,30.7-27.19,47.27-39.11,18.89-13.6,36.17-10.33,50.75,7.91,13.2,16.51,22.72,35.24,31.19,54.49,14.93,33.9,23.82,69.49,29.24,106.04,5.6,37.82,7.8,75.87,7.1,114.05-.45,24.62-1.31,49.27-3.37,73.79-1.08,12.81-5.13,25.37-7.85,38.04-.16.77-.38,1.53-.65,2.62Zm-151.12-179.16c0,3-.02,6,.02,8.99,0,.66,0,1.45.35,1.94,1.27,1.82,2.43,4.57,4.11,4.98,1.51.37,4.33-1.42,5.44-3.04,14.13-20.56,32.22-37.12,51.69-52.46,7.92-6.24,15.55-13.16,22.07-20.83,14.24-16.74,22.89-36.51,22.21-58.51-.68-22.23-10.93-40.89-28.5-55-1.1-.88-3.86-.86-5.19-.1-22.41,12.84-36.39,33.24-45.92,56.11-7.24,17.38-11.12,36.2-15.84,54.56-5.34,20.78-10.38,41.67-10.43,63.34Zm13.82,54.58c-.01,10.04.47,19.93,5.83,28.9,2.34,3.92,5.31,6.17,9.83,4.02,4.02-1.91,8.31-3.71,11.61-6.58,12.4-10.77,26.39-19.03,40.42-27.38,10.82-6.44,21.45-13.43,31.24-21.32,19.59-15.81,20.81-40.56,14.47-59.12-4.37-12.81-14.58-17.95-27.31-14.21-4.61,1.35-9.16,3.06-13.53,5.06-24.08,11.02-42.6,28.57-58.39,49.48-9.27,12.28-14.21,25.79-14.18,41.14Zm-11.87-5.61c-2.33,2.26-3.94,3.66-5.36,5.23-9.74,10.7-18.91,21.98-29.28,32.04-14.98,14.54-27.73,30.56-37.2,49.15-.93,1.82-1.47,4.14-1.32,6.17,1.76,23.7-3.53,46-13.32,67.37-11.29,24.66-22.88,49.18-34.17,73.83-.73,1.6-.86,4.39.06,5.66,2.1,2.91,5.03,5.21,7.89,8.03.91-1.14,1.78-2.08,2.49-3.14,21.02-31.33,39.7-63.9,52.9-99.42,7.23-19.44,19.41-34.9,36.88-46.56,10.96-7.31,18.08-18.49,24.36-29.97.83-1.53,1.15-3.53,1.11-5.31-.25-12.63-.27-25.29-1.15-37.89-.57-8.2-2.47-16.31-3.88-25.18ZM41.19,383.29c2.99,4.01,4.89,7.68,7.78,10.23,5.97,5.26,12.09,10.52,18.8,14.74,34.02,21.36,71.04,35.35,110.14,44.16,4.04.91,7.39,1.49,11-1.7,2.19-1.93,5.71-2.82,8.75-3.22,10.05-1.29,20.13-2.49,30.24-3.08,10.77-.62,19.45-4.71,26.42-13.18-.86-.59-1.34-1.07-1.93-1.3-52.94-20.64-105.48-42.56-162.51-49.96-16.07-2.09-31.8-1-48.7,3.31Zm535.87,205.85c27.32-3.38,58.63-9.95,87.61-24.83,4.76-2.44,9.1-6.25,12.71-10.26,8.94-9.96,6.67-26.15-4.56-32.52-5.63-3.19-11.37-6.31-17.38-8.65-2.55-.99-6.17-.67-8.83.33-10.42,3.92-20.52,8.73-30.99,12.5-28.08,10.12-57,17.12-86.38,22.25-7.86,1.37-10.19,7.31-5.44,13.64,1.5,2,2.96,4.03,4.49,6,11.17,14.31,25.74,21.76,48.77,21.54Zm204.31,59.71c15.9-1.33,30.98-5.04,42.54-17,10.17-10.51,4.86-29.58-9.14-34.03-9.68-3.07-19.26-6.46-29.02-9.24-30.4-8.67-60.87-17.13-91.33-25.58-1.61-.45-3.84-.72-5.11.05-5.52,3.34-10.84,7.03-16.14,10.72-6.08,4.24-6.31,9.79-.42,14.2,4.26,3.19,8.77,6.04,13.3,8.84,18.79,11.6,37.66,23.07,56.41,34.73,3.95,2.45,7.4,5.7,11.3,8.24,8.35,5.44,17.24,9.45,27.6,9.07Zm-39.27-283.26c.13-5.16.3-11.03-4.72-13.39-4.53-2.13-10.14-2.91-15.28-.23-2.06,1.08-4.23,1.96-6.26,3.09-38.05,21.26-76.09,42.54-114.1,63.88-1.37.77-2.71,2-3.47,3.36-7.15,12.75-14.23,25.54-21.16,38.41-.74,1.37-1.07,3.87-.31,4.9.83,1.12,3.36,1.86,4.79,1.47,3.98-1.09,7.85-2.7,11.63-4.39,15.33-6.85,30.36-14.46,45.98-20.57,24.09-9.44,47.77-20.29,73.55-24.79.77-.13,1.56-.59,2.18-1.1,16.1-13.11,26.07-29.51,27.17-50.63Zm-61.31,149.06c5.11,9.59,13.01,12.55,22.65,11.9.33-.02.66.06.99.1,41.93,5.18,83.86,10.44,125.81,15.45,6.87.82,13.98,1.5,19.87-3.96,4.58-4.24,5.82-9.35,5.58-15.33-.53-12.88-2.21-25.43-11.75-35.1-8-8.1-17.36-12.17-28.88-7.17-2.56,1.11-5.4,1.69-8.17,2.24-34.89,7-69.79,13.93-104.68,20.92-8.31,1.67-15.83,4.93-21.43,10.95Zm58.58-208.79c-.57-10.43-4.25-19.04-13.28-24.55-1.63-1-4.27-1.6-5.99-1.03-28.53,9.62-55.14,22.66-76.21,44.89-14.29,15.08-25.25,32.16-30.13,52.69-1.08,4.53-.04,8.33,3.38,11.25,3.03,2.58,6.55,3.89,10.59,1.93,17.06-8.29,34.4-16.04,51.12-24.95,14.93-7.95,30.58-14.97,43.17-26.74,9.76-9.13,16.77-19.78,17.34-33.49ZM186.06,472.89c-1.02-2.87-2.62-5.61-2.87-8.47-.32-3.58-2.17-4.19-5.11-4.67-44.89-7.29-85.94-24.29-123.42-49.83-5.6-3.82-11.3-5.15-17.58-5.92-3.46-.42-5.08,1.05-4.79,4.46.43,5.13.51,10.35,1.59,15.35,4.2,19.47,13.39,36.02,27.39,50.54,8.23,8.54,17.44,13.32,28.42,16.13,34.8,8.9,65.91-2.09,96.37-17.6Zm29.19,123.69c26.89-.34,50.89-6.33,73.71-17.33,9.49-4.57,14.22-12.7,16.7-22.4.89-3.47.22-6.26-4.12-7.61-16.2-5.01-32.17-10.8-48.48-15.43-9.32-2.64-18.56-1.73-26.92,4.69-14.49,11.13-30.46,19.63-48.01,25.03-2.85.88-6.02,1.62-8.24,3.42-2.26,1.83-4.56,4.78-4.84,7.46-.19,1.82,2.67,4.74,4.85,5.89,8.09,4.26,16.49,7.92,24.71,11.93,7.02,3.43,14.24,5.58,20.63,4.35Zm464.27-101.3c7.91,2.64,14.92,2.1,21.61.76,31.64-6.32,63.22-12.99,94.79-19.65,6.35-1.34,11.85-4.51,15.73-9.85,4.63-6.36,4.61-16.87-.11-20.76-17.47-14.38-37.25-24.38-58.94-30.71-2.77-.81-4.23-.05-5.41,2.6-13.59,30.8-35.89,54.15-62.95,73.42-1.4,1-2.59,2.29-4.72,4.19Zm-226.01,32.2c-1.54-4.73-2.72-8.85-4.28-12.83-.46-1.18-1.91-2.06-3.05-2.87-1.61-1.15-3.83-1.75-4.95-3.23-3.38-4.41-8.17-5.93-13.1-7.52-5.86-1.89-11.54-4.37-17.45-6.02-3.92-1.09-8.13-1.68-12.2-1.63-17.32.19-33.9,4.45-50.38,9.38-20.27,6.06-38.07,16.34-54.85,30.61,54.73,14.87,107.81,12.56,160.26-5.9Zm-305.82,31.11c27.06-.25,47.73-9.24,66.08-24.08,2.02-1.63,3.95-4.39,4.33-6.87,1.74-11.15-9.24-27.57-20.04-31.06-12.65-4.1-24.83-1.94-37.19,1.63-13.69,3.95-27.63,7.02-41.41,10.69-4.13,1.1-8.23,2.58-12.04,4.48-4.13,2.07-6,5.61-4.43,10.4,2.28,6.99,3.98,14.24,10.8,18.67,2.5,1.62,4.87,3.54,6.97,5.65,8.34,8.4,18.5,11.28,26.93,10.5Zm355.42-239.26c.6.46,1.19.92,1.79,1.38,3.13-3.45,7-6.47,9.28-10.41,11.61-20.1,24.33-39.43,39.71-56.83,4.52-5.12,7.78-10.48,9.96-16.89,6.63-19.47,11.75-39.2,11.97-59.92.18-17.45-1.07-34.8-4.46-53.53-39.41,60.69-53.46,128.58-68.25,196.21Zm227.81,219.63c-9.94.74-19.92,1.12-29.8,2.37-5.68.72-7.7,6.67-3.61,10.7,3.44,3.39,7.72,6.81,12.23,8.07,34.91,9.78,70,18.92,104.95,28.57,7.01,1.94,13.94,4.69,20.37,8.07,4.25,2.24,7.22,1.48,10.4-1.06,6.48-5.17,8.88-12.3,9.14-20.26.47-14.77-6.96-23.05-21.57-24.41-4.97-.46-9.92-1.11-14.87-1.77-28.99-3.85-57.7-10.29-87.24-10.29Zm-217.88,100.1c-.39-4.47-.73-8.95-1.19-13.42-2.53-24.54-14.35-44.34-31.6-61.26-.9-.88-3.61-1.17-4.61-.48-8.19,5.62-13.83,13.06-14.29,23.37-1.22,27.17,1.69,53.89,10.01,79.85,2.73,8.53,5.99,16.95,9.74,25.09,2.88,6.25,6.61,6.7,11.86,2.3,1.89-1.58,3.51-3.56,4.98-5.56,10.87-14.84,14.84-31.77,15.11-49.88Zm-308.21-167.29c3.36,2.34,6.13,4.46,9.07,6.3,18.17,11.43,38.33,15.61,59.47,15.84,24.57.27,48.68-3.86,72.8-7.95,9.68-1.64,19.45-2.7,30.18-4.15-10.63-4.37-20.31-8.31-29.97-12.33-10.75-4.47-21.11-10.86-32.3-13.07-15.71-3.11-32.04-4.31-48.08-4.13-12.65.15-25.35,3.23-37.87,5.77-8.84,1.79-17.07,5.48-23.3,13.72Zm400.38-105.02c-.43-.2-.87-.4-1.3-.6-8.16,5.71-16.34,11.39-24.47,17.15-13.35,9.46-23.44,21.6-29.88,36.7-3.65,8.57-6.74,17.45-11.16,25.61-13.85,25.6-28.2,50.92-42.35,76.35-.79,1.43-1.52,2.89-2.28,4.34,34.53-20.09,62.03-46.84,82.39-80.73,14.69-24.45,24.5-50.7,29.05-78.81Zm116.45,288.52c5.49-1.17,9.78-1.45,13.48-3.07,2.59-1.13,5.6-3.82,6.15-6.31.43-1.93-2.11-5.5-4.27-6.87-25.44-16.09-51.03-31.93-76.66-47.73-2.5-1.54-5.35-2.83-8.21-3.43-14.31-3-27.01.91-38.27,9.83-8.95,7.09-8.88,7.18,0,14.57,1.26,1.05,2.49,2.3,3.97,2.93,26.61,11.35,53.15,22.89,79.96,33.75,7.89,3.2,16.58,4.45,23.86,6.32Zm-242.97-145.11c2.18-4.21,4.73-8.31,6.52-12.71,11.71-28.8,23.16-57.69,34.9-86.48,4.06-9.97,6.03-20.16,3.88-30.71-2.58-12.66-5.75-25.2-8.77-37.77-.59-2.44-1.7-4.76-2.64-7.36-.78.68-1.11.85-1.24,1.11-.69,1.33-1.35,2.67-1.97,4.03-22.93,49.9-34.63,102.48-38,157.13-.39,6.26,1.33,10.13,7.34,12.75Zm44.66,140.8c-.59-.07-1.18-.13-1.77-.2-.79,3.08-1.7,6.14-2.34,9.26-3.21,15.56-8.38,30.09-20.17,41.54-1.29,1.26-1.85,4.27-1.41,6.15,3.08,13.27,6.21,26.55,9.93,39.65,2.58,9.09,5.56,18.16,9.35,26.8,4.22,9.64,12.97,11.81,21.95,6.29,6.36-3.91,9.64-9.89,10.98-17.09,2.65-14.32-.1-28.41-3.77-41.93-6.17-22.75-13.99-45.05-21.16-67.52-.33-1.05-1.05-1.97-1.59-2.95Zm5.75-293.83c.74-1.27,1.56-2.65,2.36-4.04,9.02-15.83,19.36-30.7,31.95-43.94,6.42-6.76,12.99-13.41,19-20.52,7.46-8.84,12.42-18.88,12.41-30.86,0-9-8.07-15.48-16.33-11.88-5.77,2.51-11.47,6.41-15.67,11.07-17.25,19.14-31.34,40.56-43.45,63.28-.78,1.45-1.2,3.62-.73,5.13,3.31,10.58,6.9,21.06,10.46,31.76Zm40.78-120.32c4.2-5.33,9.51-10.79,13.28-17.16,5.12-8.65,11.02-17.56,13.15-27.13,8.4-37.71,18.22-74.95,31.3-111.32,2.03-5.64-.99-9.86-6.88-8.99-6.96,1.02-12.82,4.83-15.49,11.23-6.28,15.02-11.76,30.38-17.6,45.59-4.03,10.5-6.53,21.14-5.68,32.6.45,6.06-.34,12.34-1.4,18.37-3.37,19.09-7.13,38.11-10.68,56.81Zm138.93,200.93c-.29-.64-.58-1.29-.87-1.93-2.55.19-5.16.1-7.65.61-37.91,7.8-74.09,20.8-107.83,39.53-24.98,13.87-48.65,30.09-72.84,45.38-1.56.98-2.49,2.96-4.4,5.33,2.05-.1,2.42-.02,2.69-.15,1.2-.57,2.38-1.18,3.55-1.81,34.16-18.62,69.45-34.18,107.68-42.8,21.23-4.79,41.12-13.52,58.65-26.78,7.24-5.48,14.03-11.57,21.02-17.39Zm-342.94,51.37c-9.71,1.05-19.42,2.07-29.13,3.17-22.64,2.56-45.17,6.58-68.09,5.44-19.37-.96-37.92-5.04-54.6-15.5-3.63-2.27-7.01-4.93-10.57-7.45-2.96,3.17-2.79,5.94.16,8.77,3.12,2.99,5.94,6.32,9.2,9.15,21.26,18.45,46.29,29.87,72.81,38.32,1.56.5,4.05-.54,5.59-1.61,3.68-2.56,6.86-5.83,10.56-8.35,19.84-13.55,40.52-25.41,64.08-31.95Zm153.04,40.14l.2,1.73c3.57.45,7.13.98,10.71,1.34,14.24,1.43,27.71-2.2,41.22-6.01,31.27-8.83,62.66-17.27,89.61-36.62,1.14-.82,2.29-1.62,4.19-2.97-2.25-.41-3.54-.91-4.8-.84-13.44.75-27.06.5-40.28,2.66-23.66,3.87-45.53,13.55-67.03,23.89-11.34,5.46-22.55,11.2-33.82,16.82Zm-77.31,53.47c-11.65,6.29-23.05,12.42-34.4,18.65-.89.49-1.67,1.65-1.98,2.66-5.22,17.18-2.91,32.8,9.54,46.4,2.78,3.04,5.56,3.48,8.62.87,3.78-3.23,7.76-6.35,11.02-10.07,14.52-16.54,17.42-41.15,7.19-58.51Zm-183.11,19.16c.18.51.37,1.02.55,1.52,5.46,1.18,11.11,3.88,16.34,3.23,11.3-1.41,22.58-3.89,33.54-7.07,29.78-8.64,50.97-31.79,77.23-46.92-14.94,1.49-29.72,3.48-44.31,6.38-5.39,1.07-11.15,3.3-15.39,6.69-18.18,14.56-38.28,25.14-60.48,32.01-2.67.83-4.99,2.75-7.48,4.16Zm243.23,160.44c-1.17-14.48-5.82-27.85-9.97-41.35-2.32-7.53-5.65-13.92-13.04-17.98-5.04-2.77-10.67-1.3-12.35,4.45-.42,1.43-.72,2.92-.82,4.4-.49,7.19-3.9,14.26-.99,21.6,6.32,15.96,18.19,27.96,29.04,40.68,1.98,2.32,4.4,1.99,5.42-.89,1.25-3.52,1.83-7.27,2.7-10.92Zm-188.96-147.96c1.23,0,2.57.15,3.87-.02,34.34-4.48,61.6-21.16,82.48-48.45,1.8-2.35,1.65-6.2,2.64-10.29-13.62,2.9-24.11,8.84-33.68,15.94-18.68,13.85-36.81,28.44-55.3,42.82Zm138.42,104.1c1.96-2.92,3.52-4.64,4.39-6.66,5.38-12.44,7.16-25.46,6.16-38.96-.62-8.41-4.12-15.27-10.29-20.87-3.65-3.32-5.48-3.22-8.44.74-2.78,3.72-5.29,7.65-8.04,11.39-5.64,7.68-6.64,16.34-2.47,24.42,5.15,9.98,11.86,19.16,18.69,29.93Zm-57.02-130.91c2.24-.25,3.87-.49,5.51-.61,18.41-1.41,32.96-10.69,46.04-22.78,3.64-3.37,7.06-7.09,9.97-11.09,2.68-3.68,4-8.02,2.2-12.72-1.07-2.78-2.48-3.83-5.66-2.7-5.79,2.06-11.66,4.05-17.65,5.3-6.42,1.34-11.12,3.87-13.63,10.44-1.45,3.78-4.27,7.14-6.88,10.36-6.35,7.85-12.94,15.51-19.89,23.81Zm322.49-144.16c-.56-.57-1.12-1.14-1.67-1.71-17.96,15.81-38.24,27.7-60.47,36.39,6.42,1,12.64,1.67,18.88,2.18,1.06.09,2.38-.26,3.23-.89,10.39-7.71,20.98-15.18,30.9-23.45,3.85-3.21,6.14-8.29,9.14-12.52Zm-443.46,168.98c.07.48.09.86.13.86,7.29.56,14.6.94,21.87,1.68,8.21.83,14.22-4.09,20.56-7.79,6.13-3.57,11.72-8.07,17.55-12.16-.23-.38-.47-.77-.7-1.15-18.35,10.9-38.25,16.81-59.4,18.56Zm307.76-476.84c4.91-14.74,9.51-28.57,14.11-42.4-5.89,6.21-11.22,12.76-16.31,19.5-.98,1.29-1.56,3.41-1.32,5,.87,5.68,2.18,11.3,3.52,17.91Z"/>
  </g>
</svg>